<?xml version="1.0" encoding="UTF-8" standalone="no"?>
<!-- Created with Inkscape (http://www.inkscape.org/) -->

<svg
   version="1.1"
   id="svg1"
   width="1024"
   height="1024"
   viewBox="0 0 1024 1024"
   sodipodi:docname="ChatGPT Image Jun 24, 2025, 03_42_23 PM.png"
   xmlns:inkscape="http://www.inkscape.org/namespaces/inkscape"
   xmlns:sodipodi="http://sodipodi.sourceforge.net/DTD/sodipodi-0.dtd"
   xmlns="http://www.w3.org/2000/svg"
   xmlns:svg="http://www.w3.org/2000/svg">
  <defs
     id="defs1" />
  <sodipodi:namedview
     id="namedview1"
     pagecolor="#ffffff"
     bordercolor="#000000"
     borderopacity="0.25"
     inkscape:showpageshadow="2"
     inkscape:pageopacity="0.0"
     inkscape:pagecheckerboard="0"
     inkscape:deskcolor="#d1d1d1">
    <inkscape:page
       x="0"
       y="0"
       width="1024"
       height="1024"
       id="page2"
       margin="0"
       bleed="0" />
  </sodipodi:namedview>
  <g
     inkscape:groupmode="layer"
     inkscape:label="Image"
     id="g1">
    <path
       style="fill:#000000"
       d="m 211.5,819.40417 c -1.65,-0.22948 -6.58936,-0.90381 -10.97634,-1.49851 C 165.89328,813.21115 132.21477,788.09544 117.8923,756.28342 116.21257,752.55254 113.63714,745.225 112.16913,740 L 109.5,730.5 v -91 -91 l 2.33789,-9 c 2.52522,-9.72114 9.98511,-26.44173 15.2523,-34.1865 4.18886,-6.15921 17.03855,-19.4843 23.06721,-23.92063 2.56157,-1.885 7.22763,-4.97497 10.36902,-6.86662 l 5.71162,-3.43935 0.38818,-22.29345 c 0.47656,-27.36953 1.6374,-39.93576 5.47008,-59.21416 7.97014,-40.08976 22.00923,-73.35963 46.04206,-109.11056 C 272.91998,198.97627 366.03899,144.8327 469,134.6065 c 63.35661,-6.29265 121.27446,0.50475 174.79086,20.51394 49.7497,18.60087 90.9756,45.26304 126.76564,81.9836 47.47934,48.71376 75.93568,106.3404 84.94285,172.01688 0.85832,6.25849 1.83874,22.88581 2.17872,36.9496 l 0.61814,25.57051 5.59893,2.92949 c 6.74003,3.52653 18.04688,12.40049 23.78344,18.66598 10.94023,11.94894 18.89818,25.96596 24.01261,42.29545 L 914.5,544.5 v 93.5 93.5 l -2.25111,8.5 c -2.42766,9.16663 -9.22275,24.1609 -14.39942,31.7742 -4.2243,6.21267 -16.93199,19.35697 -23.84947,24.66889 -12.64314,9.70864 -28.76312,16.99614 -45.5,20.56958 -7.88162,1.68277 -14.90093,2.25331 -33.13531,2.69328 -26.00281,0.6274 -40.14174,-0.44609 -54.77864,-4.15905 -36.15275,-9.1709 -65.31246,-35.55789 -76.50759,-69.23269 -5.08411,-15.29295 -5.18512,-17.63429 -4.83174,-111.99389 l 0.32889,-87.82032 2.70798,-9.30642 c 8.9122,-30.62824 28.17727,-53.82135 56.44617,-67.95526 5.37363,-2.68671 10.78274,-5.14732 12.02024,-5.46801 2.67026,-0.69198 2.84398,-3.39623 1.19224,-18.55972 C 726.82954,398.2745 706.69282,356.46414 673.07091,322.97466 642.28338,292.3084 605.52877,272.94207 561.14918,264.00211 540.68509,259.87976 525.00783,258.62525 503,259.34894 c -21.66762,0.71251 -34.60402,2.47018 -52.51635,7.13541 -17.20552,4.48114 -25.31911,7.4433 -41.27626,15.06937 -43.10167,20.5987 -76.75243,53.8156 -97.19946,95.94628 -12.27491,25.29221 -17.87679,46.75933 -19.59958,75.10812 l -0.67505,11.10813 2.88335,0.7224 c 4.59345,1.15086 18.32488,8.36952 25.12277,13.20712 20.6731,14.71167 35.10722,35.29788 41.96707,59.85423 l 2.79351,10 V 638 c 0,100.77666 0.29153,95.99774 -6.98729,114.53856 -5.07979,12.93939 -11.68061,22.71926 -22.96652,34.02753 -17.30127,17.33555 -34.50172,26.39671 -59.04619,31.10543 -7.68268,1.47387 -56.38113,2.79227 -64,1.73265 z m 52,-37.45061 c 25.08789,-2.87127 47.12789,-17.47056 57.42107,-38.0357 7.3583,-14.70142 7.18538,-11.98301 6.86471,-107.91786 L 327.5,550.5 l -2.33033,-7 c -7.61084,-22.86191 -25.34663,-38.57935 -52.15492,-46.21966 -8.27177,-2.35744 -51.03175,-2.96518 -64.54977,-0.91743 -30.62114,4.63857 -52.79994,23.29273 -60.20478,50.63709 -1.61623,5.96836 -1.7602,13.53395 -1.7602,92.5 v 86 l 2.92687,8.93067 c 8.56878,26.14563 32.24737,44.34868 61.69383,47.42747 11.9713,1.25167 41.80167,1.30601 52.3793,0.0954 z m 557,-1.31918 c 16.20422,-3.35801 29.29437,-10.433 39.68767,-21.45044 7.40153,-7.84602 10.94225,-13.52945 14.64322,-23.50477 l 2.66356,-7.17917 0.27931,-87.37213 C 878.08261,544.51486 878.31854,548.60601 871.62468,534.5 862.5558,515.38907 844.90287,502.39236 820.5,496.86021 816.18709,495.88246 806.34573,495.5 785.5,495.5 c -32.45342,0 -36.89069,0.62172 -49.97237,7.00183 -15.12414,7.37623 -26.45591,18.37579 -32.9646,31.99817 C 696.30295,547.60207 696.5,544.17328 696.5,640 v 87.5 l 2.76906,7.82783 c 9.35298,26.43985 32.61002,43.35335 64.19683,46.68663 11.80267,1.24551 48.66898,0.35344 57.03411,-1.38008 z M 235.14669,458 H 255 v -5.03941 c 0,-6.76528 1.74734,-22.54653 3.63941,-32.86975 13.40343,-73.12939 62.81212,-137.88438 131.30885,-172.09327 24.72672,-12.3491 55.0451,-21.14524 86.55174,-25.11086 13.1225,-1.65168 54.99941,-1.69306 69,-0.0682 31.97737,3.71122 63.31541,12.9377 90.65799,26.69135 24.20554,12.17567 41.09687,24.58033 61.84675,45.41903 22.44696,22.54303 35.08697,39.99558 47.48989,65.5711 13.64127,28.12908 20.54825,53.21987 23.5239,85.45463 0.58157,6.30005 1.15281,11.54731 1.26943,11.66059 0.11662,0.11328 11.5748,0.3587 25.46261,0.54537 L 821.00115,458.5 820.99974,448 C 820.99022,377.13614 791.76372,309.91723 738.3671,257.95073 698.97395,219.61265 652.38778,193.81963 597.558,179.99 564.93209,171.76082 553.53667,170.49823 512,170.51039 c -28.39324,0.008 -37.94406,0.35965 -47.70865,1.75502 -39.99396,5.71518 -71.95676,15.65516 -104.79135,32.58862 -29.62518,15.27831 -52.57108,32.09444 -76.53587,56.0901 -21.92471,21.95294 -38.05908,44.08444 -51.0447,70.01797 -17.93873,35.82536 -26.18403,69.17848 -28.41409,114.93808 l -0.65304,13.40017 6.22054,-0.65017 C 212.49414,458.29258 224.22737,458 235.14669,458 Z"
       id="path1" />
  </g>
</svg>
