<?xml version="1.0" encoding="UTF-8" standalone="no"?>
<!-- Created with Inkscape (http://www.inkscape.org/) -->

<svg
   version="1.1"
   id="svg1"
   width="1024"
   height="1024"
   viewBox="0 0 1024 1024"
   sodipodi:docname="ChatGPT Image Jun 24, 2025, 03_43_45 PM.png"
   xmlns:inkscape="http://www.inkscape.org/namespaces/inkscape"
   xmlns:sodipodi="http://sodipodi.sourceforge.net/DTD/sodipodi-0.dtd"
   xmlns="http://www.w3.org/2000/svg"
   xmlns:svg="http://www.w3.org/2000/svg">
  <defs
     id="defs1" />
  <sodipodi:namedview
     id="namedview1"
     pagecolor="#ffffff"
     bordercolor="#000000"
     borderopacity="0.25"
     inkscape:showpageshadow="2"
     inkscape:pageopacity="0.0"
     inkscape:pagecheckerboard="0"
     inkscape:deskcolor="#d1d1d1">
    <inkscape:page
       x="0"
       y="0"
       width="1024"
       height="1024"
       id="page2"
       margin="0"
       bleed="0" />
  </sodipodi:namedview>
  <g
     inkscape:groupmode="layer"
     inkscape:label="Image"
     id="g1">
    <path
       style="fill:#000000"
       d="m 359.5,901.33837 c -7.51192,-3.96018 -11.44226,-10.51011 -11.47804,-19.12821 -0.0392,-9.4453 6.43618,-17.82908 15.54155,-20.12184 C 366.44718,861.36221 388.47086,861 429.73804,861 h 61.8524 l -0.0452,-66.73756 -0.0452,-66.73756 -9.55322,-1.18924 C 450.07659,722.36825 414.49636,709.90433 386.09581,692.75858 365.39521,680.26139 341.33603,659.62263 325.83435,641.06432 296.46312,605.90166 278.21775,565.60533 270.33968,518.5 268.71026,508.75719 268.5,501.26153 268.5,452.91547 v -54.58453 l 2.86306,-4.13236 c 7.00713,-10.11368 22.1879,-12.14716 31.75654,-4.25382 7.54301,6.22236 7.31054,4.39784 7.97039,62.55524 0.4822,42.49998 0.89918,53.73558 2.28242,61.5 12.20462,68.50687 53.0261,123.85839 112.23365,152.1822 63.60398,30.42699 141.3386,24.94945 200.00718,-14.09341 48.13444,-32.03259 79.18314,-82.58007 86.84856,-141.39001 1.19698,-9.18335 1.53944,-22.38222 1.54378,-59.5 0.004,-30.77777 0.38494,-49.06501 1.07497,-51.55007 C 717.24843,391.84136 727.0184,385 736,385 c 9.04706,0 18.36146,6.55457 20.77016,14.61602 1.5762,5.27523 1.70445,91.67113 0.16089,108.38398 -3.57903,38.75181 -16.72077,76.77936 -37.65345,108.95576 C 701.14514,644.82784 675.30768,670.67912 647,689.272 634.94601,697.18924 613.00299,708.17112 598.64329,713.47321 581.27958,719.88449 549.3634,727 537.96973,727 H 535 v 67 67 h 60.55718 c 40.33362,0 62.00059,0.36345 64.87931,1.08832 5.56643,1.40165 11.3268,6.18034 13.6707,11.34094 3.55035,7.8169 1.61661,18.88995 -4.23892,24.27301 -6.09535,5.60353 3.02427,5.30118 -158.58615,5.25769 -133.6796,-0.036 -149.08664,-0.20058 -151.78212,-1.62159 z M 499.00882,630.91046 C 440.81103,625.31072 392.27864,583.01368 378.05898,525.5 c -2.02208,-8.17861 -4.05665,-25.84784 -4.05814,-35.24302 L 374,485.01396 512.59554,484.75698 c 76.22755,-0.14134 138.71095,-0.032 138.852,0.24302 0.74103,1.44472 -1.48479,27.82832 -2.95639,35.04339 -9.31593,45.67497 -41.93911,85.98728 -82.97795,102.53548 -11.64998,4.69765 -22.76199,7.21476 -37.09039,8.40176 -13.38297,1.10868 -17.25838,1.09943 -29.41399,-0.0702 z M 375.28352,330.25 c 0.32331,-94.81566 0.56359,-108.71032 2.00165,-115.75 8.16396,-39.96486 28.0896,-70.58899 59.21483,-91.00852 22.24406,-14.59309 42.76396,-21.08885 70,-22.15912 24.63769,-0.96816 44.93583,2.98529 65.41417,12.74065 15.3696,7.32168 26.23117,14.98857 38.0909,26.88734 17.32945,17.38649 28.05606,35.66897 34.63947,59.03965 5.38196,19.10559 5.3471,18.24426 5.35144,132.25 L 650,438 H 512.45806 374.91611 Z"
       id="path1" />
  </g>
</svg>
